<svg xmlns="http://www.w3.org/2000/svg" aria-hidden="true" overflow="hidden" style="width:0;height:0;position:absolute"><defs><symbol id="angle-right" viewBox="0 0 26 32"><path fill="none" stroke-linecap="round" stroke-linejoin="round" stroke-width="6.4" d="M3.542 3.2 20.367 16 3.542 28.8"/></symbol><symbol id="cross" viewBox="0 0 32 32"><path fill="none" stroke="var(--color2, #fff)" stroke-width="2" d="m2.519 2 26.963 28M2 29.481 30 2.518"/></symbol><symbol id="burger" viewBox="0 0 46 32"><path fill="none" stroke="var(--color1, #d41443)" stroke-width="2.286" d="M0 2.286h45.714M0 16h45.714M0 29.714h45.714"/></symbol><symbol id="arrow-right" viewBox="0 0 32 32"><path fill="#d41443" d="m19.414 27.414 10-10a2 2 0 0 0 0-2.828l-10-10a2 2 0 1 0-2.828 2.828L23.172 14H4a2 2 0 1 0 0 4h19.172l-6.586 6.586c-.39.39-.586.902-.586 1.414s.195 1.024.586 1.414a2 2 0 0 0 2.828 0z"/></symbol><symbol id="advantage-1" viewBox="0 0 21 32"><path fill="none" stroke="#ffa5ba" style="stroke:var(--color1,#ffa5ba)" stroke-miterlimit="22.926" stroke-width=".418" d="m5.343 5.872-1.65 1.131c-.691.475-1.73.401-2.308-.166-.579-.564-.49-1.412.202-1.887l1.902-1.306"/><path fill="#ffa5ba" style="fill:var(--color1,#ffa5ba)" d="M9.59 11.531c-.697-.164-1.294-.606-1.589-1.177-.152-.293-.197-.569-.228-1.398l-.039-1.033-.543-.195a11.317 11.317 0 0 1-1.216-.554l-.673-.36-.806.539c-1.167.781-1.919.896-2.943.452C.739 7.452.275 6.771.281 5.938c.005-.756.313-1.192 1.361-1.928.463-.325.835-.648.827-.717s-.097-.441-.199-.826A5.947 5.947 0 0 1 2.085.894V.022h16.236l-.042.952a8.177 8.177 0 0 1-.244 1.687c-.111.404-.187.747-.168.762s.359.253.757.53c1.191.828 1.504 1.316 1.428 2.23-.073.879-.797 1.604-1.812 1.815-.832.173-1.558-.042-2.558-.756-.308-.22-.586-.399-.619-.399s-.455.198-.939.44-1.038.488-1.231.546l-.352.106V8.95c0 .936-.019 1.049-.24 1.457-.281.517-.764.879-1.439 1.079-.525.156-.764.164-1.269.045zm1.23-1.628c.205-.134.212-.175.213-1.267 0-.62.026-1.337.057-1.593l.056-.465h.371c.433 0 1.455-.33 2.087-.674.262-.143.591-.433.807-.714.201-.26.383-.473.405-.473s.326.232.676.516c1.062.862 1.733 1.277 2.133 1.317.699.071 1.2-.497.795-.902-.079-.079-.718-.521-1.418-.982l-1.274-.838.368-.583c.409-.648.598-1.108.603-1.474l.003-.244H3.576l.062.288c.114.53.308 1.025.616 1.571l.306.541-.408.24c-1.053.62-2.27 1.483-2.356 1.672-.186.407.47.83 1.08.696.143-.031.793-.426 1.446-.877l1.186-.82.322.37c.556.639 2.182 1.369 3.049 1.369h.383v1.468c0 .88.038 1.539.096 1.646.218.408.993.519 1.464.21z"/><path fill="#ffa5ba" style="fill:var(--color1,#ffa5ba)" d="M9.77 11.604a2.897 2.897 0 0 1-.734-.229c-.596-.282-1.005-.734-1.195-1.319l-.061-.188-.014-.947c-.009-.521-.02-.952-.027-.959s-.17-.066-.364-.131a8.925 8.925 0 0 1-1.784-.838c-.13-.082-.248-.148-.262-.148s-.318.199-.675.443c-.843.575-1.05.678-1.539.762-.972.167-1.982-.206-2.507-.925l-.063-.086V4.912l.092-.12c.168-.218.405-.412.994-.815.321-.219.643-.455.717-.523l.133-.124-.115-.363c-.263-.825-.337-1.334-.337-2.312 0-.531.003-.606.035-.618C2.083.03 5.751.023 10.215.023h8.116V.54c0 1.015-.097 1.675-.365 2.472-.055.164-.1.318-.099.343.001.034.173.162.7.521.784.534.927.648 1.118.886.509.636.575 1.475.172 2.185-.182.321-.587.691-.961.877-.576.288-1.402.342-2.038.134-.295-.097-.504-.216-1.152-.66a75.723 75.723 0 0 0-.647-.441c-.032-.019-.093.011-.427.213a8.704 8.704 0 0 1-1.754.792l-.281.092-.009.934c-.009.888-.011.943-.058 1.11-.276.973-1.247 1.639-2.373 1.627a3.597 3.597 0 0 1-.388-.022zm.777-1.591c.192-.067.351-.182.424-.305l.062-.106.014-3.019.358-.011c.312-.009.391-.019.613-.079a7.458 7.458 0 0 0 1.484-.574c.464-.246.484-.263.906-.784.211-.261.393-.474.403-.474s.27.204.576.454c.505.412 1.584 1.188 1.818 1.309.383.197.982.114 1.231-.169.16-.182.165-.374.014-.541-.103-.114-1.307-.938-2.118-1.45l-.658-.415.059-.093c.643-1.013.74-1.179.804-1.387.059-.192.126-.474.164-.693l.014-.083H3.645v.056c0 .174.199.892.319 1.151.04.086.199.373.353.637s.281.489.281.498c0 .009-.274.176-.609.371-.531.309-1.573.996-1.981 1.307-.267.204-.295.449-.076.664.178.175.48.269.795.249a.961.961 0 0 0 .509-.165c.147-.09.888-.597 1.506-1.03l.591-.414.192-.135.193.268c.215.299.338.405.779.67a6.986 6.986 0 0 0 1.955.8c.193.047.286.056.548.056h.316v1.499c0 1.47.001 1.501.046 1.594.159.328.743.497 1.185.342zM2.284 25.997c-.007-.027-.4-2.241-.875-4.92l-.864-4.87V12.54l.112-.024c.079-.018 2.889-.024 9.652-.024 10.596 0 9.685-.014 9.924.149.197.135.335.39.335.619 0 .053-.014.164-.033.246-.034.15-2.226 12.481-2.226 12.52 0 .012-.314.021-.799.021-.75 0-.798-.002-.787-.039.025-.083 1.41-7.921 1.403-7.941-.003-.012-.08.067-.17.175-.271.327-1.071 1.107-1.419 1.385-1.564 1.249-3.242 1.951-5.216 2.182-.466.055-1.572.055-2.038.001-2.058-.239-3.804-.995-5.426-2.351-.33-.276-.881-.825-1.172-1.169-.121-.143-.222-.257-.225-.254s.313 1.794.701 3.981.707 3.988.707 4.003c0 .022-.171.028-.785.028h-.786l-.011-.05zm8.889-5.743c2.488-.258 4.756-1.664 6.215-3.852.138-.207.299-.461.357-.565.264-.469.571-1.15.732-1.622l.051-.15h-8.227c-4.525 0-8.227.005-8.227.012s.046.137.101.29a9.27 9.27 0 0 0 2.097 3.345c.192.196.459.45.593.564a8.448 8.448 0 0 0 5.06 2.022c.264.014.915-.009 1.248-.043z"/><path fill="#ffa5ba" style="fill:var(--color1,#ffa5ba)" d="M3.371 31.743c-.029-.047-.271-1.312-.539-2.813l-1.605-8.974C.612 16.521.108 13.534.108 13.318c0-.317.046-.431.241-.599l.241-.207 19.583.047.169.209c.093.115.169.325.169.467s-.52 3.177-1.156 6.746c-.636 3.568-1.361 7.644-1.61 9.057s-.492 2.619-.538 2.68c-.105.139-13.751.164-13.837.026zm12.659-1.665c.028-.134.229-1.26.448-2.503l1.02-5.778c.342-1.936.623-3.568.623-3.627s-.389.272-.864.736c-.475.464-1.118 1.015-1.429 1.224-.823.554-2.096 1.131-3.087 1.399-.789.214-1.008.235-2.461.232-1.354-.002-1.7-.031-2.29-.194-1.85-.509-3.237-1.292-4.607-2.603-.493-.472-.904-.851-.913-.842s.22 1.352.509 2.984c.85 4.808 1.327 7.52 1.475 8.394l.139.82H15.98zm-4.066-9.935c2.162-.446 4.184-1.85 5.484-3.808.447-.674 1.023-1.887 1.025-2.16.001-.147-.448-.155-8.194-.155-5.759 0-8.195.028-8.195.095 0 .251.61 1.512 1.073 2.217 1.353 2.061 3.502 3.499 5.807 3.886.788.132 2.163.098 3-.075z"/><path fill="#ffa5ba" style="fill:var(--color1,#ffa5ba)" d="M3.334 31.629c-.041-.11-.638-3.349-1.326-7.198C-.182 12.179-.045 13.116.305 12.743l.215-.229h19.625l.184.233a.983.983 0 0 1 .184.519c0 .265-.736 4.525-2.035 11.784-.856 4.782-1.162 6.456-1.21 6.623-.042.146-.45.155-6.952.155H3.409zm12.66-1.381c0-.041.138-.848.306-1.794s.627-3.554 1.02-5.795.736-4.17.762-4.285c.036-.161-.138-.039-.75.521-1.092 1.001-1.661 1.412-2.61 1.883-1.519.754-2.723 1.035-4.453 1.038-2.665.005-4.872-.908-6.912-2.859-.456-.436-.829-.736-.829-.666s.161 1.041.357 2.159c.197 1.118.656 3.747 1.021 5.842s.681 3.859.703 3.92c.031.087 1.254.111 5.712.111 3.12 0 5.673-.033 5.673-.074zm-3.709-10.209c2.386-.563 4.7-2.516 5.782-4.88.496-1.083.503-1.028-.143-1.074-.635-.046-12.996-.043-14.705.004l-1.124.031.118.334c.609 1.725 2.227 3.685 3.842 4.652.808.484 2.158.978 3.028 1.109.79.119 2.309.036 3.201-.174z"/><path fill="#ffa5ba" style="fill:var(--color1,#ffa5ba)" d="M3.36 31.812c-.029-.035-.223-.997-.43-2.139C1.862 23.804.685 17.191.315 14.985c-.328-1.956-.328-1.964.007-2.304l.208-.211h19.588l.136.144c.151.16.226.289.284.489.04.139-.071.826-.849 5.259a2207.561 2207.561 0 0 1-2.327 13c-.041.219-.097.418-.123.444-.033.031-2.242.05-6.937.058-5.936.011-6.896.003-6.941-.051zm12.581-1.579c.012-.012.483-2.643 1.048-5.847s1.037-5.87 1.05-5.925c.049-.202.076-.223-1.248.945a9.145 9.145 0 0 1-2.193 1.452c-1.366.66-2.374.915-3.895.986a9.952 9.952 0 0 1-3.078-.344c-1.605-.449-2.914-1.227-4.387-2.605-.291-.272-.567-.515-.613-.54-.076-.041-.082-.033-.059.08a1822.653 1822.653 0 0 0 1.561 8.941c.232 1.316.434 2.462.447 2.547.043.272.079.304.356.323.378.025 10.986.014 11.011-.012zm-4.072-10.139c1.913-.342 3.789-1.532 5.145-3.263a8.65 8.65 0 0 0 1.02-1.682c.337-.706.403-.897.332-.968-.08-.08-1.983-.109-7.223-.109-5.042-.001-8.921.039-8.973.09-.045.045.214.686.497 1.225.64 1.223 1.721 2.489 2.819 3.299.86.635 2.126 1.186 3.317 1.444.366.079.537.088 1.477.073.834-.012 1.177-.037 1.59-.111z"/><path fill="#ffa5ba" style="fill:var(--color1,#ffa5ba)" d="M3.357 31.819c-.053-.064-.231-.985-.783-4.044C1.36 21.044.481 16.077.204 14.375c-.208-1.278-.203-1.368.111-1.686l.215-.219h19.631l.158.21c.248.329.273.455.191.968-.109.679-.652 3.815-1.039 5.998-1.773 9.996-2.156 12.085-2.23 12.159-.088.088-13.812.101-13.884.014zm12.572-1.609c.018-.011.041-.094.054-.186s.345-1.981.738-4.198l1.001-5.648c.157-.889.297-1.663.31-1.719.02-.087.012-.096-.055-.059-.043.024-.328.265-.633.537-1.104.985-1.625 1.363-2.493 1.81-1.601.823-3.075 1.155-4.882 1.099-1.554-.048-2.757-.348-4.075-1.018-.934-.474-1.682-1.022-2.808-2.057-.45-.413-.542-.474-.51-.332.011.043.148.835.307 1.761.885 5.149 1.713 9.804 1.763 9.901l.056.111 1.172.022c1.337.025 10.01.005 10.056-.023zm-5.086-10.032c1.207-.064 1.938-.249 2.98-.753.943-.456 1.702-1.017 2.526-1.867.773-.797 1.155-1.352 1.687-2.448.187-.386.297-.668.3-.772l.005-.163-.354-.034c-.458-.044-13.773-.053-14.92-.011-1 .037-.945.004-.757.468.61 1.509 1.923 3.174 3.254 4.128.732.524 1.934 1.065 2.938 1.322.684.175 1.074.196 2.341.129z"/><path fill="#ffa5ba" style="fill:var(--color1,#ffa5ba)" d="M3.357 31.817c-.077-.094-.31-1.339-1.556-8.295C.812 18 .233 14.677.095 13.732c-.083-.57-.05-.747.193-1.038l.188-.224h19.7l.157.206c.284.371.285.407.071 1.668-.519 3.061-2.555 14.506-2.932 16.486-.097.511-.198.954-.224.986-.069.083-13.824.084-13.892.002zm12.413-1.62.175-.031.587-3.322 1.035-5.84c.246-1.385.44-2.539.431-2.566-.009-.026-.264.17-.566.436-1.303 1.146-1.805 1.503-2.767 1.969-1.459.708-2.455.956-4.034 1.004-2.859.088-4.986-.747-7.348-2.883-.592-.536-.689-.608-.689-.517 0 .082 1.355 7.843 1.798 10.302.266 1.476.253 1.43.428 1.452.256.032 10.769.028 10.95-.003zm-4.415-10.066c1.159-.127 2.187-.49 3.241-1.145 1.078-.67 2.258-1.841 2.882-2.861.228-.372.667-1.241.785-1.554.152-.401.156-.399-.856-.433-1.12-.037-13.195-.031-14.292.009-.503.018-.848.048-.877.078-.101.101.402 1.143.95 1.967.705 1.059 1.649 2.036 2.552 2.639.763.51 2.137 1.088 3.032 1.276.379.08 1.947.095 2.582.025zm-1.762-8.572c-.592-.128-1.173-.507-1.476-.963-.287-.432-.34-.676-.346-1.591-.003-.445-.018-.867-.033-.936-.025-.114-.071-.142-.449-.276-.403-.143-1.349-.594-1.774-.845l-.201-.119-.618.424c-.34.233-.742.487-.894.564-.964.489-2.31.269-3.007-.492C.297 6.782.126 6.086.329 5.433c.177-.569.435-.855 1.334-1.477.305-.211.613-.432.686-.492.13-.107.131-.113.076-.302-.311-1.069-.428-1.862-.4-2.696l.014-.421L18.318.024V.62c0 .771-.095 1.481-.288 2.152-.085.296-.154.561-.154.589s.322.271.715.539c.994.678 1.223.917 1.417 1.479a2.05 2.05 0 0 1-.011 1.226c-.351.947-1.336 1.534-2.454 1.464-.661-.041-.934-.158-1.882-.806-.336-.23-.623-.418-.637-.418s-.2.103-.412.229c-.498.294-.94.499-1.521.704l-.465.165-.027.968c-.023.826-.04 1.003-.117 1.201-.145.373-.3.604-.573.854-.591.541-1.491.772-2.316.594zM10.69 9.95c.348-.178.341-.141.356-1.847l.014-1.513.43-.023c.511-.027 1.127-.215 1.852-.565.53-.256.687-.385 1.13-.933.176-.218.329-.396.34-.396s.292.217.624.482c.769.614 1.637 1.218 1.889 1.314.705.269 1.56-.332 1.103-.776-.158-.153-1.195-.864-2.034-1.395-.341-.216-.638-.408-.659-.427s.135-.316.352-.665c.386-.622.562-1.047.603-1.46l.016-.153-13.058-.021.028.242c.047.404.264.966.601 1.556.176.308.303.575.283.592s-.326.202-.679.411c-.737.435-1.835 1.18-1.982 1.344-.425.476.49 1.038 1.181.725.156-.071 1.778-1.165 2.318-1.563.067-.049.128-.081.136-.07l.222.292c.511.675 2.262 1.476 3.226 1.476h.34l.005 1.53c.004 1.124.019 1.554.059 1.619.062.102.287.251.465.308.197.063.637.019.842-.086z"/><path fill="#ffa5ba" style="fill:var(--color1,#ffa5ba)" d="M9.726 11.598c-.746-.125-1.463-.639-1.773-1.271l-.15-.305-.036-.98c-.02-.539-.045-1.003-.054-1.031s-.214-.126-.453-.218a11.003 11.003 0 0 1-1.583-.745l-.351-.208-.703.473c-.722.486-1.053.652-1.456.728-.566.107-1.308.001-1.781-.254a2.43 2.43 0 0 1-.951-.978C.274 6.482.269 6.46.269 5.984c0-.472.006-.502.16-.822.205-.424.427-.643 1.235-1.217.353-.251.676-.494.718-.541.072-.08.07-.106-.036-.482-.226-.804-.287-1.208-.314-2.069L2.006.022H18.32v.639c0 .892-.059 1.31-.316 2.24l-.128.464.1.078c.055.043.38.272.721.51.739.515 1.031.798 1.213 1.173.714 1.47-.551 3.049-2.36 2.947-.617-.035-.898-.15-1.771-.725l-.756-.498-.267.156c-.419.244-1.295.656-1.685.792-.195.068-.379.154-.41.192-.039.048-.055.281-.056.802-.001 1.236-.104 1.577-.638 2.108a2.323 2.323 0 0 1-1.209.664 3.54 3.54 0 0 1-1.032.035zm.841-1.619c.236-.073.346-.161.393-.315.039-.126.091-1.624.093-2.676l.001-.41.188-.001c.538-.002 1.26-.198 1.98-.535.593-.278.767-.412 1.178-.907.211-.254.397-.462.413-.462s.298.213.627.471c.75.59 1.465 1.099 1.739 1.239.292.148.543.175.841.089.465-.135.663-.524.395-.774-.161-.15-1.157-.833-1.994-1.368a17.25 17.25 0 0 1-.689-.454c-.024-.023.116-.3.34-.673.376-.628.541-1.014.592-1.382l.026-.19-6.499-.032c-3.575-.018-6.51-.021-6.523-.009-.037.037.074.547.193.89.059.171.247.564.417.874s.309.573.309.584c0 .011-.274.184-.609.385-.811.485-1.757 1.127-1.992 1.35-.232.221-.244.352-.053.57a.761.761 0 0 0 .362.223c.267.079.393.083.626.018.146-.04 1.119-.671 2.324-1.506l.282-.196.094.133c.552.783 2.137 1.576 3.292 1.648l.406.025.014 1.54c.014 1.466.019 1.544.103 1.637.252.278.665.355 1.13.212zM3.353 31.814c-.081-.098-.253-1.004-1.331-7.007C.871 18.398.217 14.643.068 13.597c-.064-.452-.017-.645.227-.921l.181-.206h19.727l.142.21c.208.309.246.44.213.738-.026.237-.452 2.74-.842 4.944-1.142 6.467-2.214 12.428-2.351 13.081-.036.172-.088.339-.114.371-.04.048-1.276.059-6.948.059s-6.908-.011-6.948-.059zm12.563-1.643c.014-.014.17-.848.347-1.853l.925-5.239a951.625 951.625 0 0 0 .797-4.552c.009-.043.003-.077-.012-.077s-.365.289-.776.642c-1.166 1.002-1.539 1.263-2.465 1.728-1.429.717-2.493.984-4.098 1.028-1.386.038-2.3-.083-3.424-.455-1.5-.497-2.436-1.09-4.214-2.67-.201-.178-.373-.317-.382-.307-.018.018.012.197.538 3.223.991 5.71 1.469 8.355 1.528 8.467.038.072.122.082.74.097 1.051.025 10.469-.003 10.497-.033zm-4.163-10.103c1.325-.221 2.558-.793 3.71-1.721.453-.365 1.297-1.236 1.636-1.688.476-.635 1.221-2.061 1.221-2.337 0-.113-.014-.12-.299-.155-.412-.051-15.159-.038-15.493.014-.263.04-.266.042-.259.183.009.193.474 1.123.847 1.694.648.992 1.652 2.069 2.462 2.644.904.641 2.565 1.323 3.485 1.432.488.058 2.205.016 2.692-.065z"/></symbol><symbol id="advantage-2" viewBox="0 0 31 32"><path fill="#ffa5ba" style="fill:var(--color1,#ffa5ba)" d="M21.507 31.937c-.049-.013-.227-.054-.395-.093-.404-.094-.767-.332-1.278-.837l-.413-.408-.046.176c-.04.151-.186.896-.186.946 0 .009-3.482.017-7.737.017-7.329 0-7.738-.004-7.762-.079-.066-.208-.463-2.466-2.497-14.187C-.054 10.288.018 10.741.077 10.464c.038-.183.035-.329-.015-.653A8.645 8.645 0 0 1 0 8.651c.003-.706.01-.762.14-1.133a3.97 3.97 0 0 1 .885-1.461c.424-.449.654-.623 1.151-.871.462-.23 1.043-.382 1.681-.438.267-.024.498-.056.514-.072s-.006-.227-.049-.468c-.228-1.269-.092-2.289.472-3.222.311-.514.561-1.187 1.261-.929.681.25.69.519.685.886-.017.226-.076.324-.304.663-.361.536-.48.9-.491 1.489-.004.255.008.48.027.5s.222-.157.45-.392c.488-.503.873-.787 1.389-1.026.519-.24.871-.323 1.501-.351 1.273-.057 2.202.34 3.198 1.364.274.282.527.513.563.514.203.006.809.144 1.254.288.405.131.52.153.549.107.02-.032.098-.251.171-.486.158-.504.42-1.06.684-1.452.388-.576 1.153-1.262 1.736-1.558.262-.133.772-.135.983-.004.319.197.484.833.307 1.182-.122.24-.203.306-.625.505-.57.269-.972.709-1.308 1.432-.191.411-.171.417.476.148.514-.214.905-.267 1.776-.244.661.019.754.031 1.114.157a3.962 3.962 0 0 1 2.432 2.434c.117.339.139.476.158 1 .026.726-.034 1.229-.221 1.856l-.188.63c-.049.164-.044.174.137.36.221.226.326.456.326.712 0 .103-.072.564-.159 1.025-.448 2.361-1.455 8.393-1.472 8.815l-.011.294.54.166c.297.091.669.221.827.289s.31.114.339.103c.029-.011.089-.139.134-.284.274-.885.617-1.456 1.228-2.044.742-.715 1.566-1.149 2.113-1.114.216.013.313.045.44.142.334.255.44.721.243 1.072-.105.187-.255.297-.676.496-.376.178-.79.47-1.055.745-.217.224-.625.913-.592.999.007.021.257-.06.554-.18.676-.273 1.027-.33 1.845-.3.687.026 1.025.105 1.53.359.389.195.633.371.984.706a3.81 3.81 0 0 1 1.07 1.715c.093.295.105.425.105 1.078 0 .448-.025.868-.062 1.058-.166.843-.669 2.005-1.268 2.925a42.59 42.59 0 0 1-1.153 1.606c-.944 1.262-.906 1.231-1.67 1.385-.707.143-1.318.162-2.182.069-.631-.068-.798-.072-1.097-.025-.366.057-1.725.105-1.883.066zm1.141-1.73c.231-.024.579-.085.773-.134.487-.124.732-.116 1.035.034.235.116.279.122.86.118.787-.006.904-.03 1.131-.233.276-.248 1.034-1.213 1.464-1.866.885-1.341 1.268-2.408 1.214-3.381-.039-.69-.316-1.22-.843-1.617-.396-.298-.694-.398-1.264-.424-.884-.041-1.241.143-1.962 1.012-.468.564-.66.69-1.097.721-.597.043-.848-.099-1.384-.781-.573-.73-1.03-.975-1.808-.973-1.116.004-2.083.816-2.217 1.862-.127.994.258 2.132 1.197 3.537.523.782.848 1.192 1.332 1.681.495.499.642.541 1.57.443zm-4.838-.528c.039-.217.096-.541.125-.721l.054-.327-.319-.663c-.379-.787-.59-1.327-.734-1.878-.091-.349-.106-.51-.105-1.17.001-.594.019-.83.081-1.055.257-.927.868-1.739 1.723-2.289.742-.478.666-.383.773-.96.106-.571.727-4.299.727-4.363 0-.104-.135-.002-.682.51-.845.792-1.242 1.116-1.915 1.564-2.491 1.657-5.459 2.292-8.18 1.75-1.642-.327-3.335-1.12-4.659-2.182-.21-.168-.734-.651-1.165-1.073s-.791-.744-.801-.716c-.023.066.297 1.953 1.61 9.511.586 3.375.757 4.288.811 4.343.047.047 3.374.083 9.384.102l3.201.009zm-5.955-11.17c.953-.047 1.426-.135 2.34-.434 1.106-.363 2.35-1.051 3.232-1.788.774-.647 1.589-1.576 2.089-2.381.37-.596.946-1.797 1.09-2.271l.031-.102-7.53.009c-8.579.009-10.58.032-10.663.115-.085.085.043.436.479 1.304.622 1.241 1.171 2.013 2.054 2.889a9.582 9.582 0 0 0 4.538 2.521c.738.172 1.149.197 2.341.138zm8.804-9.188c.361-.902.482-1.627.38-2.282a1.835 1.835 0 0 0-.555-1.086A2.289 2.289 0 0 0 18.65 5.3c-.744.072-1.111.299-1.547.959-.491.741-.701.886-1.288.887-.337 0-.408-.015-.594-.124a2.084 2.084 0 0 1-.428-.381c-.493-.586-1.019-1.092-1.135-1.092-.015 0-.028.613-.028 1.361.001 1.053-.017 1.485-.077 1.909-.043.301-.078.64-.078.753v.205l1.316.013c.724.007 2.297.013 3.496.011l2.18-.001.192-.48zm-9.156.384c.159-.024.168-.035.213-.258.064-.322.126-.757.162-1.146.049-.529.036-2.077-.021-2.394-.207-1.156-.791-1.972-1.618-2.256-.765-.263-1.709-.07-2.332.479-.333.293-.521.697-.67 1.44-.131.652-.213.848-.459 1.095-.266.266-.468.345-.885.344-.336 0-.394-.015-.878-.233-.292-.132-.639-.252-.796-.277-.905-.144-1.886.411-2.336 1.322-.164.332-.176.382-.191.835-.017.496.064.94.185 1.019.031.02.39.048.798.063.887.032 8.59.004 8.829-.031z"/></symbol><symbol id="advantage-3" viewBox="0 0 30 32"><path fill="#ffa5ba" style="fill:var(--color1,#ffa5ba)" d="m13.484 31.945-1.387-.033-.036-.596a92.578 92.578 0 0 1-.052-2.854c-.02-2.881-.104-4.663-.228-4.819-.054-.067-.675-.534-1.382-1.038-3.681-2.623-6.405-5.268-8.124-7.89-.674-1.028-1.512-2.755-1.83-3.771C.089 9.808.02 9.131.052 7.134l.03-1.832.329-.688C1.435 2.469 2.972 1.101 5.219.333 5.87.111 6.063.088 7.61.054c2.01-.044 2.582.05 3.789.625.916.436 1.358.764 2.526 1.876l.808.769 1.046-.959C17.836.478 18.654.131 21.222.056c1.605-.047 2.244.026 3.264.371 1.37.464 2.816 1.547 3.679 2.756.524.734 1.08 1.937 1.236 2.675.169.798.171 3.091.002 3.89-.196.929-.636 2.106-1.164 3.11-.942 1.792-1.966 3.112-3.971 5.117-1.563 1.563-2.744 2.57-5.114 4.361l-1.563 1.18-.05 1.078c-.028.593-.073 2.471-.102 4.175s-.06 3.106-.071 3.117c-.049.049-2.624.088-3.882.058zm1.874-1.886c.188-.119.26-5.088.075-5.158-.065-.024-.453-.025-.862 0l-.743.044.052 2.357c.029 1.296.078 2.444.11 2.551s.144.211.248.232c.367.072.989.058 1.12-.025zm-.059-7.439c1.956-1.143 5.514-3.882 7.666-5.902l.654-.614-.272-.485c-.307-.547-.425-1.131-.504-2.478-.081-1.379-.218-2.664-.319-2.98-.113-.355-.515-.547-.839-.399-.37.169-.41.372-.615 3.184-.154 2.114-.259 2.454-.951 3.076-1.01.908-2.691.864-3.65-.095-.568-.568-.65-.868-.799-2.93-.213-2.944-.233-3.043-.656-3.218-.36-.149-.663-.062-.796.23-.06.131-.188 1.273-.285 2.539-.102 1.331-.227 2.422-.297 2.588-.168.402-.714.983-1.182 1.257-.524.307-1.596.387-2.182.164-.836-.319-1.487-.994-1.647-1.707-.042-.186-.14-1.234-.218-2.33-.166-2.335-.225-2.629-.554-2.754-.309-.118-.609-.036-.765.21-.128.2-.24 1.123-.41 3.385-.115 1.524-.118 1.54-.54 2.314l-.343.63.952.88c1.941 1.794 3.158 2.765 5.119 4.084 1.031.694 2.679 1.702 2.782 1.702.028 0 .321-.158.652-.352zm-3.834-7.886c.093-.05.21-.167.26-.26s.171-1.198.269-2.456c.202-2.583.299-2.929.987-3.518.611-.523.912-.628 1.801-.627.902.001 1.255.136 1.838.703.657.64.741.995.855 3.646.088 2.057.153 2.317.623 2.512.148.061.362.088.476.059.388-.097.401-.173.679-3.843.049-.65.149-1.319.225-1.499.213-.51.689-1.029 1.207-1.314.429-.237.553-.262 1.272-.26.643.002.867.039 1.16.193.482.254 1.211 1.063 1.346 1.494.059.19.172 1.342.249 2.56s.157 2.23.176 2.25c.14.145 1.013-1.152 1.708-2.537.627-1.251.869-2.028.987-3.167.24-2.326-.214-3.656-1.77-5.178-1.222-1.196-2.142-1.525-4.298-1.537-1.338-.007-1.867.095-2.742.534-.654.328-1.115.718-2.351 1.988l-1.107 1.138h-.47c-.259 0-.557-.045-.664-.099s-.712-.627-1.345-1.271c-1.264-1.286-1.877-1.734-2.82-2.062-.596-.207-.701-.215-2.312-.182-1.552.032-1.73.053-2.22.256-1.338.554-2.558 1.669-3.161 2.887l-.381.769.01 1.689c.012 1.926.114 2.463.744 3.885.429.969 1.24 2.425 1.568 2.815.215.256.239.265.298.107.035-.094.109-.706.165-1.361.306-3.583.306-3.58.713-4.143.564-.779 1.461-1.158 2.46-1.041 1.204.141 2.018.859 2.226 1.964.045.24.148 1.331.229 2.425.144 1.945.236 2.404.507 2.513a.741.741 0 0 0 .603-.031z"/></symbol></defs></svg>