<svg xmlns="http://www.w3.org/2000/svg" viewBox="0 0 67 67"><circle cx="33.5" cy="33.5" r="33.5" fill="#d41443"/><g fill="none" stroke="#fff" stroke-width="4"><path stroke-linejoin="round" d="M16.557 34h35.071c2.216 0 3.93 1.784 3.93 4s-1.714 4-3.93 4h-8.164v5.622c0 5.095-7.316 5.016-7.316 0V42H16.557c-2.216 0-4-1.784-4-4s1.784-4 4-4z"/><path stroke-linecap="round" d="M19.156 20.336C27.996 28.713 39.252 28.709 49 20v0"/><path stroke-linejoin="round" d="M51.726 29.389v4.616H16.62v-4.616"/><path stroke-linejoin="round" d="M51.726 29.389a17.554 17.48 0 0 0-8.777-15.138 17.554 17.48 0 0 0-17.554 0 17.554 17.48 0 0 0-8.777 15.138m35.005 12.612v9c0 4.431-3.568 8-8 8h-19c-4.432 0-8-3.569-8-8v-9"/></g><path fill="#fff" d="M22.771 59v6.162a33.502 33.5 0 0 0 4 1.07V59zm18.653 0v6.973a33.502 33.5 0 0 0 4-1.256V59z" color="#000" style="-inkscape-stroke:none"/></svg>