<?xml version="1.0" encoding="UTF-8"?>
<svg width="67" height="67" version="1.1" viewBox="0 0 67 67" xmlns="http://www.w3.org/2000/svg">
 <g>
  <ellipse cx="33.5" cy="33.5" rx="33.5" ry="33.5" fill="#d41443"/>
 </g>
 <g>
  <circle cx="33.991" cy="30.217" r="0" fill="none" stroke="#000" stroke-width=".99371"/>
  <g fill="none" stroke="#fff" stroke-width="4">
   <g>
    <path d="m16.557 34h35.071c2.216 0 3.9291 1.784 3.9291 4s-1.7131 4-3.9291 4h-8.1638v5.622c0 5.0953-7.3164 5.0161-7.3164 0v-5.622h-19.591c-2.216 0-4-1.784-4-4s1.784-4 4-4z" stroke-linejoin="round"/>
    <path d="m19.156 20.336c8.8397 8.3774 20.096 8.3732 29.844-0.33576v0" stroke-linecap="round"/>
    <path d="m51.726 29.389 8.26e-4 4.6156h-35.108v-4.6154" stroke-linejoin="round"/>
   </g>
   <path transform="scale(1,-1)" d="m51.726-29.389a17.554 17.48 0 0 1-8.7768 15.138 17.554 17.48 0 0 1-17.554-1e-6 17.554 17.48 0 0 1-8.7768-15.138" stroke-linejoin="round"/>
   <path d="m51.623 42.001v8.9992c0 4.432-3.568 8-8 8h-19c-4.432 0-8-3.568-8-8v-9" stroke-linejoin="round"/>
  </g>
  <path d="m22.771 59v6.1621a33.502 33.5 0 0 0 4 1.0703v-7.2324z" color="#000000" fill="#fff" style="-inkscape-stroke:none"/>
  <path d="m41.424 59v6.9727a33.502 33.5 0 0 0 4-1.2559v-5.7168z" color="#000000" fill="#fff" style="-inkscape-stroke:none"/>
 </g>
</svg>
